<svg xmlns="http://www.w3.org/2000/svg" width="141" height="141" fill="none" viewBox="0 0 141 141">
  <path fill="#fff" d="M52.53 130V23.307L0 3.626V114.98L52.53 130Z"/>
  <path fill="#F5F5F5" d="M52.53 130h22.286V23.307H52.531V130ZM0 3.626l52.53 19.68 8.49-3.107L6.367 0 0 3.626Zm74.816 19.681L130 3.626 123.633 0 99.225 8.546 66.327 20.199l8.49 3.108Z"/>
  <path fill="#F5F5F5" d="M52.53 23.307h22.286l-8.49-3.108H61.02l-8.49 3.108Z"/>
  <path fill="#fff" fill-rule="evenodd" d="M97.963 37.011c.106.599.2.972.2.972s-.06-.38-.2-.972Zm4.297.972.104-.129-.104.129Z" clip-rule="evenodd"/>
  <path fill="#F5F5F5" d="M96.571 61.633c6.424.518 5.837-8.804 5.837-8.804-3.139 1.094-5.898.431-7.959-1.011 0 0-4.3 9.297 2.122 9.816Z"/>
  <path fill="#fff" d="M90.735 30.558c-5.837 2.59 2.066 9.84 2.066 9.84 1.34-1.369 3.195-2.318 5.362-2.415 0 0-.094-.373-.2-.972-.58-2.45-2.528-8.539-7.228-6.453Zm0 15.833c-.177-.837-.184-1.649 0-2.367a8.116 8.116 0 0 1 2.066-3.626s-8.434-6.215-10.556 1.036c-2.123 7.251 8.49 4.957 8.49 4.957Z"/>
  <path fill="#fff" d="M84.367 54.9c4.776 5.698 10.082-3.082 10.082-3.082-1.971-1.38-3.303-3.474-3.714-5.427 0 0-11.143 2.812-6.368 8.51Zm32.368-8.509c.53-5.697-9.85-3.229-9.85-3.229.668 2.107.604 5.266-.749 7.077 0 0 10.068 1.85 10.599-3.848Zm-10.599 3.848c-.812 1.088-2.036 2-3.728 2.59 0 0 2.653 8.286 8.49 5.179 5.837-3.108-4.762-7.769-4.762-7.769Z"/>
  <path fill="#fff" fill-rule="evenodd" d="M74.816 23.307V130L130 114.98V3.625L74.816 23.308Zm32.069 19.855s10.38-2.468 9.85 3.23c-.531 5.697-10.599 3.847-10.599 3.847s10.599 4.661 4.762 7.769c-5.837 3.107-8.49-5.18-8.49-5.18s.587 9.323-5.837 8.805c-6.423-.518-2.122-9.815-2.122-9.815s-5.306 8.78-10.082 3.082c-4.775-5.697 6.368-8.509 6.368-8.509s-10.613 2.294-8.49-4.957c2.122-7.25 10.556-1.036 10.556-1.036s-7.903-7.25-2.066-9.84c4.7-2.086 6.648 4.004 7.228 6.453-.46-2.582-1.155-9.366 4.445-8.525 6.395.96.805 8.302-.044 9.368.888-1.079 7.245-8.443 11.187-3.153 4.245 5.697-6.666 8.461-6.666 8.461Z" clip-rule="evenodd"/>
  <path fill="#F5F5F5" stroke="#F5F5F5" d="M106.389 136a4 4 0 0 0 4 4h5.333a4 4 0 0 0 4-4v-13.667a4 4 0 0 1 4-4H136a4 4 0 0 0 4-4V109a4 4 0 0 0-4-4h-12.278a4 4 0 0 1-4-4V89a4 4 0 0 0-4-4h-5.333a4 4 0 0 0-4 4v12a4 4 0 0 1-4 4H89a4 4 0 0 0-4 4v5.333a4 4 0 0 0 4 4h13.389a4 4 0 0 1 4 4V136Z"/>
</svg>
