<svg xmlns="http://www.w3.org/2000/svg" width="160" height="145" fill="none" viewBox="0 0 160 145">
  <path fill="#fff" stroke="#F5F5F5" d="M1 141.25A2.75 2.75 0 0 0 3.75 144H155a4 4 0 0 0 4-4V4a3 3 0 1 0-6 0v130.5a4 4 0 0 1-4 4H3.75A2.75 2.75 0 0 0 1 141.25Z"/>
  <path fill="#fff" d="M141 131V19s-1.5-6-7.5-6-7.5 6-7.5 6v112h15Zm-35 0V43s-2.5-6-7.5-6-7.5 6-7.5 6v88h15Zm-35 0V53s-2.5-6-7.5-6-7.5 6-7.5 6v78h15Zm-35 0V79.5s-2.5-6-7.5-6-7.5 6-7.5 6V131h15Z"/>
  <path fill="#fff" d="M141 131V19s-1.5-6-7.5-6-7.5 6-7.5 6v112h15Z"/>
  <path stroke="#F5F5F5" d="M141 131V19s-1.5-6-7.5-6-7.5 6-7.5 6v112h15Zm-35 0V43s-2.5-6-7.5-6-7.5 6-7.5 6v88h15Zm-35 0V53s-2.5-6-7.5-6-7.5 6-7.5 6v78h15Zm-35 0V79.5s-2.5-6-7.5-6-7.5 6-7.5 6V131h15Z"/>
  <path stroke="#F5F5F5" d="M141 131V19s-1.5-6-7.5-6-7.5 6-7.5 6v112h15Z"/>
</svg>
