<svg width="36" height="36" viewBox="0 0 36 36" fill="none" xmlns="http://www.w3.org/2000/svg">
<rect y="0" width="36" height="36" fill-opacity="0.6"/>
<path d="M14 32.496C14 32.856 12.872 33.036 10.616 33.036L8.6 32.928C7.4 32.832 6.8 32.664 6.8 32.424V8.268C6.8 7.86 8 7.656 10.4 7.656C12.8 7.656 14 7.86 14 8.268V17.484L18.392 8.268C18.56 7.932 19.52 7.764 21.272 7.764C24.464 7.764 26.144 8.04 26.312 8.592C26.312 8.64 26.3 8.688 26.276 8.736L20.012 20.04L27.284 30.084C27.284 30.132 27.056 30.336 26.6 30.696C25.496 31.656 24.2 32.412 22.712 32.964C22.256 33.132 21.8 33.216 21.344 33.216L20.48 33.144C19.712 32.952 19.112 32.46 18.68 31.668L14.576 23.82H14V32.496Z" fill="#0C2C80"/>
</svg>
